<svg xmlns="http://www.w3.org/2000/svg" width="1200" height="630" viewBox="0 0 1200 630">
  <defs>
    <linearGradient id="bg" x1="0" y1="0" x2="1" y2="1">
      <stop offset="0%" stop-color="#f0fdfa"/>
      <stop offset="52%" stop-color="#ffffff"/>
      <stop offset="100%" stop-color="#ecfeff"/>
    </linearGradient>
    <g id="book">
      <path d="M12 7.2C10.3 5.9 8.3 5.2 6 5.2H4.1a.6.6 0 0 0-.6.6v11a.6.6 0 0 0 .6.6H6c2.3 0 4.3.7 6 2 1.7-1.3 3.7-2 6-2h1.9a.6.6 0 0 0 .6-.6v-11a.6.6 0 0 0-.6-.6H18c-2.3 0-4.3.7-6 2Z"/>
      <path d="M12 7.2v12.2"/>
    </g>
  </defs>

  <rect width="1200" height="630" fill="#f8fafc"/>
  <rect x="48" y="48" width="1104" height="534" rx="44" fill="url(#bg)" stroke="#e2e8f0" stroke-width="2"/>

  <g transform="translate(836 118) scale(15.5)" fill="none" stroke="#009689" stroke-width="1.9" stroke-linecap="round" stroke-linejoin="round" opacity="0.10">
    <use href="#book"/>
  </g>

  <rect x="112" y="108" width="112" height="112" rx="30" fill="#009689"/>
  <g transform="translate(140 136) scale(2.35)" fill="none" stroke="#ffffff" stroke-width="1.9" stroke-linecap="round" stroke-linejoin="round">
    <use href="#book"/>
  </g>

  <text x="112" y="344" font-family="Inter" font-weight="900" font-size="104" letter-spacing="-3" fill="#020617">Cookbook</text>
  <text x="112" y="406" font-family="Inter" font-weight="500" font-size="38" fill="#64748b">Recipes &amp; Shopping List</text>

  <g font-family="Inter" font-weight="700" font-size="24" fill="#475569">
    <rect x="112" y="446" width="240" height="60" rx="30" fill="#ffffff" stroke="#e2e8f0" stroke-width="2"/>
    <text x="232" y="484" text-anchor="middle">RecipeMD</text>
    <rect x="368" y="446" width="252" height="60" rx="30" fill="#ffffff" stroke="#e2e8f0" stroke-width="2"/>
    <text x="494" y="484" text-anchor="middle">Menu for the week</text>
    <rect x="636" y="446" width="210" height="60" rx="30" fill="#ffffff" stroke="#e2e8f0" stroke-width="2"/>
    <text x="741" y="484" text-anchor="middle">Shopping list</text>
  </g>

  <text x="1088" y="546" text-anchor="end" font-family="Inter" font-weight="700" font-size="26" letter-spacing="1" fill="#00786f">cookbook.eschults.org</text>
</svg>
